<?xml version="1.0" encoding="utf-8"?>
<!-- Generator: Adobe Illustrator 24.1.2, SVG Export Plug-In . SVG Version: 6.00 Build 0)  -->
<svg version="1.1" id="Layer_1" xmlns="http://www.w3.org/2000/svg" xmlns:xlink="http://www.w3.org/1999/xlink" x="0px" y="0px"
	 viewBox="0 0 1214 746" style="enable-background:new 0 0 1214 746;" xml:space="preserve">
<style type="text/css">
	.st0{font-family:'HelveticaNeue-Bold';}
	.st1{font-size:4.2484px;}
	.st2{fill:none;stroke:#00FF00;stroke-width:0.5;stroke-miterlimit:10;}
	.st3{fill:none;stroke:#0000FF;stroke-linejoin:round;stroke-miterlimit:10;}
	.st4{fill:none;stroke:#C4C4C4;stroke-miterlimit:10;stroke-dasharray:1,1;}
</style>
<g>
	<defs>
		<rect id="SVGID_1_" width="468.9" height="288.1"/>
	</defs>
	<clipPath id="SVGID_2_">
		<use xlink:href="#SVGID_1_"  style="overflow:visible;"/>
	</clipPath>
</g>
<text transform="matrix(1 0 0 1 71.8374 32.3945)" class="st0 st1">full: -0.037deg from horiz.</text>
<g>
	<defs>
		<rect id="SVGID_3_" x="61" y="34.1" width="73.4" height="73.4"/>
	</defs>
	<clipPath id="SVGID_4_">
		<use xlink:href="#SVGID_3_"  style="overflow:visible;"/>
	</clipPath>
	<g transform="matrix(1 0 0 1 3.814697e-06 0)" style="clip-path:url(#SVGID_4_);enable-background:new    ;">
		
			<image style="overflow:visible;" width="380" height="380" xlink:href="50BA45EBAB997D1A.png"  transform="matrix(0.1931 0 0 0.1931 61.023 34.084)">
		</image>
	</g>
</g>
<path class="st2" d="M97.4,67.9v3.9 M95.4,69.8h3.9 M96,68.4l2.7,2.7 M96,71.2l2.7-2.7"/>
<line class="st3" x1="61" y1="69.8" x2="134.4" y2="69.8"/>
<g>
	<defs>
		<rect id="SVGID_5_" x="61" y="170.6" width="73.4" height="73.4"/>
	</defs>
	<clipPath id="SVGID_6_">
		<use xlink:href="#SVGID_5_"  style="overflow:visible;"/>
	</clipPath>
	<g transform="matrix(1 0 0 1 3.814697e-06 0)" style="clip-path:url(#SVGID_6_);enable-background:new    ;">
		
			<image style="overflow:visible;" width="380" height="380" xlink:href="50BA45EBAB997D1E.png"  transform="matrix(0.1931 0 0 0.1931 61.023 170.6132)">
		</image>
	</g>
</g>
<path class="st2" d="M97.4,206.3v3.9 M95.4,208.3h3.9 M96,206.9l2.7,2.7 M96,209.6l2.7-2.7"/>
<line class="st3" x1="61" y1="208.3" x2="134.4" y2="208.3"/>
<text transform="matrix(1 0 0 1 165.4956 32.3945)" class="st0 st1">outline: 0.069deg from horiz.</text>
<path class="st2" d="M195.2,70.3v3.9 M193.3,72.2h3.9 M193.8,70.9l2.7,2.7 M193.8,73.6l2.7-2.7"/>
<line class="st3" x1="157.6" y1="72.2" x2="231" y2="72.2"/>
<g>
	<defs>
		<rect id="SVGID_7_" x="157.6" y="170.6" width="73.4" height="73.4"/>
	</defs>
	<clipPath id="SVGID_8_">
		<use xlink:href="#SVGID_7_"  style="overflow:visible;"/>
	</clipPath>
	<g transform="matrix(1 0 0 1 0 0)" style="clip-path:url(#SVGID_8_);enable-background:new    ;">
		
			<image style="overflow:visible;" width="380" height="380" xlink:href="50BA45EBAB997D1E.png"  transform="matrix(0.1931 0 0 0.1931 157.5783 170.6132)">
		</image>
	</g>
</g>
<path class="st2" d="M195.2,203.9v3.9 M193.3,205.8h3.9 M193.8,204.5l2.7,2.7 M193.8,207.2l2.7-2.7"/>
<line class="st3" x1="157.6" y1="205.8" x2="231" y2="205.8"/>
<text transform="matrix(1 0 0 1 261.4717 32.3945)" class="st0 st1">internal: 0.270deg from horiz.</text>
<g>
	<defs>
		<rect id="SVGID_9_" x="254.3" y="34.1" width="73.4" height="73.4"/>
	</defs>
	<clipPath id="SVGID_10_">
		<use xlink:href="#SVGID_9_"  style="overflow:visible;"/>
	</clipPath>
	<g transform="matrix(1 0 0 1 1.525879e-05 0)" style="clip-path:url(#SVGID_10_);enable-background:new    ;">
		
			<image style="overflow:visible;" width="380" height="380" xlink:href="50BA45EBAB997D1A.png"  transform="matrix(0.1931 0 0 0.1931 254.3267 34.084)">
		</image>
	</g>
</g>
<path class="st2" d="M292.2,74.9v3.9 M290.3,76.8h3.9 M290.9,75.5l2.7,2.7 M290.9,78.2l2.7-2.7"/>
<line class="st3" x1="254.3" y1="76.8" x2="327.7" y2="76.8"/>
<g>
	<defs>
		<rect id="SVGID_11_" x="254.3" y="170.6" width="73.4" height="73.4"/>
	</defs>
	<clipPath id="SVGID_12_">
		<use xlink:href="#SVGID_11_"  style="overflow:visible;"/>
	</clipPath>
	<g transform="matrix(1 0 0 1 1.525879e-05 0)" style="clip-path:url(#SVGID_12_);enable-background:new    ;">
		
			<image style="overflow:visible;" width="380" height="380" xlink:href="50BA45EBAB997D1A.png"  transform="matrix(0.1931 0 0 0.1931 254.3267 170.6132)">
		</image>
	</g>
</g>
<path class="st2" d="M292.2,199.3v3.9 M290.3,201.2h3.9 M290.9,199.9l2.7,2.7 M290.9,202.6l2.7-2.7"/>
<line class="st3" x1="254.3" y1="201.2" x2="327.7" y2="201.2"/>
<text transform="matrix(1 0 0 1 360.1519 32.3945)" class="st0 st1">eyes: -0.057deg from horiz.</text>
<g>
	<defs>
		<rect id="SVGID_13_" x="350.9" y="34.1" width="73.4" height="73.4"/>
	</defs>
	<clipPath id="SVGID_14_">
		<use xlink:href="#SVGID_13_"  style="overflow:visible;"/>
	</clipPath>
	<g transform="matrix(1 0 0 1 0 0)" style="clip-path:url(#SVGID_14_);enable-background:new    ;">
		
			<image style="overflow:visible;" width="380" height="380" xlink:href="50BA45EBAB997D26.png"  transform="matrix(0.1931 0 0 0.1931 350.882 34.084)">
		</image>
	</g>
</g>
<path class="st2" d="M388.8,67.4v3.9 M386.9,69.4h3.9 M387.5,68l2.7,2.7 M387.5,70.7l2.7-2.7"/>
<line class="st3" x1="350.9" y1="69.4" x2="424.3" y2="69.4"/>
<g>
	<defs>
		<rect id="SVGID_15_" x="350.9" y="170.6" width="73.4" height="73.4"/>
	</defs>
	<clipPath id="SVGID_16_">
		<use xlink:href="#SVGID_15_"  style="overflow:visible;"/>
	</clipPath>
	<g transform="matrix(1 0 0 1 0 0)" style="clip-path:url(#SVGID_16_);enable-background:new    ;">
		
			<image style="overflow:visible;" width="380" height="380" xlink:href="50BA45EBAB997D26.png"  transform="matrix(0.1931 0 0 0.1931 350.882 170.6132)">
		</image>
	</g>
</g>
<path class="st2" d="M388.8,206.8v3.9 M386.9,208.7h3.9 M387.5,207.4l2.7,2.7 M387.5,210.1l2.7-2.7"/>
<line class="st3" x1="350.9" y1="208.7" x2="424.3" y2="208.7"/>
<g id="MrUVm6_1_">
	<g>
		<path class="st4" d="M193.2,107.4c-6.1,0.5-11.8-0.9-17-3.7c-8-4.3-14.2-10.4-17.4-19.2c-0.5-1.3-0.6-2.6-0.1-3.9
			c1.2-2.9,0.8-5.9,0-8.9c-0.2-0.7-0.1-0.9,0.5-1.3c1.4-1,2.1-2.6,2.9-4.1c1.2-2.5,2.4-5.1,4.2-7.3c0.7-0.8,1-1.8,1.2-2.9
			c0.8-3.3,1.9-6.5,3.9-9.3c1.5-2.1,3-4.2,4.5-6.3c0.5-0.8,1.1-1.4,1.9-2c1.9-1.3,3.9-2.6,5.8-3.9c1.7-1.1,3.8-1,5.7-1.1
			c5.7-0.4,11.3,0.1,16.8,2c1.4,0.5,2.6,1.2,3.6,2.2c1.8,1.9,3.9,3.3,6.4,4.2c0.7,0.3,1.2,0.7,1.5,1.4c0.5,1.2,1.5,2.1,2.4,3
			c1.5,1.5,2.5,3.2,3.2,5.2c1.2,3.2,2.2,6.5,4.4,9.3c2.1,2.6,2.3,5.9,2.2,9.1c-0.1,1.2-0.9,2.5-1.8,3.3c-1.1,1-1.1,2.1-0.9,3.3
			c0.1,0.7,0.2,1.5,0.5,2.1c1.4,2.8,0.5,5.3-0.7,7.8c-1.8,3.6-4,6.9-6.7,9.8c-5.5,5.8-12.2,9.4-20.1,10.8
			C197.8,107.5,195.5,107.3,193.2,107.4z M224.8,61.7c0.2,1.7,0.5,3.4,0.7,5.1c0.2,1.6,0.4,3.2,0.6,4.8c0.1,0.4,0.2,1,0.7,0.5
			c1-1,2.2-2.2,2-3.7C228.5,65.7,227.9,63,224.8,61.7z"/>
	</g>
</g>
</svg>
